<svg xmlns="http://www.w3.org/2000/svg" width="117.533" height="78.355" viewBox="0 0 117.533 78.355"><g transform="translate(0 0)"><rect width="117.533" height="78.356" fill="red"/><rect width="47.013" height="78.356" fill="#060"/><g transform="translate(27.359 19.5)"><path d="M181.79,170.446c-5.918-.178-33.054-17.117-33.24-19.814l1.5-2.5c2.692,3.911,30.433,20.384,33.158,19.8l-1.416,2.512" transform="translate(-146.809 -138.615)" fill="#ff0" stroke="#000" stroke-linecap="round" stroke-linejoin="round" stroke-width="0.573" fill-rule="evenodd"/><path d="M148.665,144.491c-.531,1.429,7.081,6.135,16.24,11.705s17.055,9.012,17.64,8.518a5.126,5.126,0,0,0,.265-.494c-.11.165-.377.218-.793.1-2.474-.714-8.928-3.676-16.92-8.522s-14.945-9.313-16.026-11.211a1.15,1.15,0,0,1-.118-.558h-.026l-.23.4-.032.063h0Zm32.2,22.731c-.1.182-.287.188-.643.149-2.214-.245-8.93-3.511-16.878-8.269-9.248-5.536-16.886-10.58-16.057-11.9l.225-.4.044.014c-.745,2.234,15.073,11.279,16,11.856,9.153,5.67,16.869,8.982,17.552,8.121l-.248.427h0Z" transform="translate(-145.741 -135.312)" fill="#ff0" stroke="#000" stroke-linecap="round" stroke-linejoin="round" stroke-width="0.573" fill-rule="evenodd"/><path d="M168.99,151.775c5.923-.047,13.232-.809,17.439-2.486l-.906-1.472c-2.486,1.376-9.836,2.281-16.582,2.416-7.98-.073-13.612-.816-16.434-2.71l-.855,1.568c5.188,2.2,10.5,2.662,17.34,2.684" transform="translate(-149.302 -138.125)" fill="#ff0" stroke="#000" stroke-linecap="round" stroke-linejoin="round" stroke-width="0.573" fill-rule="evenodd"/><path d="M185.679,148.608c-.145.232-2.888,1.178-6.929,1.876a71.627,71.627,0,0,1-10.775.779,76.446,76.446,0,0,1-10.32-.653,30.075,30.075,0,0,1-7.241-1.918c.077-.154.127-.262.2-.406a31.346,31.346,0,0,0,7.107,1.884,75.564,75.564,0,0,0,10.24.655,71.936,71.936,0,0,0,10.7-.794c4.144-.668,6.408-1.529,6.726-1.928l.293.505h0Zm-.8-1.493c-.449.361-2.687,1.154-6.625,1.783a71.289,71.289,0,0,1-10.238.718,68.984,68.984,0,0,1-9.889-.636,27.28,27.28,0,0,1-6.894-1.739c.076-.132.154-.263.234-.394a23.543,23.543,0,0,0,6.7,1.709,75.391,75.391,0,0,0,20.009-.11c3.958-.545,6.088-1.557,6.411-1.81l.289.48h0Z" transform="translate(-148.308 -137.411)" fill="#ff0" stroke="#000" stroke-linecap="round" stroke-linejoin="round" stroke-width="0.573" fill-rule="evenodd"/><path d="M140.816,198.173c3.643,1.96,11.735,2.947,19.392,3.015,6.972.011,16.055-1.078,19.451-2.878l-.093-1.961c-1.063,1.661-10.8,3.254-19.433,3.188s-16.658-1.4-19.332-3.126l.016,1.761" transform="translate(-140.578 -177.386)" fill="#ff0" stroke="#000" stroke-linecap="round" stroke-linejoin="round" stroke-width="0.573" fill-rule="evenodd"/><path d="M178.939,197.166v.468c-.51.61-3.711,1.533-7.725,2.183a79.717,79.717,0,0,1-12,.822,75.306,75.306,0,0,1-11.391-.784,28.419,28.419,0,0,1-8.149-2.2l0-.546c1.778,1.182,6.594,2.046,8.211,2.311a74.894,74.894,0,0,0,11.326.778,79.325,79.325,0,0,0,11.936-.816c2.88-.416,6.982-1.5,7.79-2.218h0Zm0-1.664v.468c-.51.61-3.711,1.533-7.725,2.182a79.72,79.72,0,0,1-12,.822,75.262,75.262,0,0,1-11.391-.784,28.4,28.4,0,0,1-8.149-2.2l0-.546c1.778,1.182,6.594,2.046,8.211,2.311a74.84,74.84,0,0,0,11.326.779,79.266,79.266,0,0,0,11.936-.817c2.88-.416,6.982-1.5,7.79-2.218h0Z" transform="translate(-139.672 -176.661)" fill="#ff0" stroke="#000" stroke-linecap="round" stroke-linejoin="round" stroke-width="0.573" fill-rule="evenodd"/><path d="M169.7,249.3a66.777,66.777,0,0,1-17.074-2.653l1.105,1.731A45.855,45.855,0,0,0,169.784,251c6.367-.186,11.932-.679,15.853-2.588l1.133-1.793C184.1,247.873,175,249.287,169.7,249.3" transform="translate(-150.09 -217.806)" fill="#ff0" stroke="#000" stroke-linecap="round" stroke-linejoin="round" stroke-width="0.573" fill-rule="evenodd"/><path d="M184.652,247.064c-.167.254-.336.506-.509.75a44.6,44.6,0,0,1-5.994,1.537,54.28,54.28,0,0,1-9.848.9c-7.422-.109-13.5-1.562-16.356-2.8l-.231-.4.038-.06.391.152a52.606,52.606,0,0,0,16.2,2.674A55.22,55.22,0,0,0,178,248.93c4.265-.854,5.989-1.5,6.518-1.791l.135-.076h0Zm.983-1.621.013.015c-.125.21-.253.424-.384.639a41.689,41.689,0,0,1-7.573,1.683,59.841,59.841,0,0,1-9.3.79,63.782,63.782,0,0,1-17.295-2.585l-.219-.42a72.95,72.95,0,0,0,17.514,2.57,64.767,64.767,0,0,0,9.237-.793,47.73,47.73,0,0,0,7.545-1.676c-.009-.012-.019-.026-.03-.039l.494-.185h0Z" transform="translate(-148.68 -216.863)" fill="#ff0" stroke="#000" stroke-linecap="round" stroke-linejoin="round" stroke-width="0.55" fill-rule="evenodd"/><path d="M177.569,120.29a18.7,18.7,0,0,1-5.065,12.64,18.232,18.232,0,0,1-12.452,5.164c-5.557.1-10.8-3.521-12.2-5.113a18.572,18.572,0,0,1-5.057-12.389c.34-6.016,2.7-10.206,6.125-13.079a18.3,18.3,0,0,1,11.777-4.173,18.035,18.035,0,0,1,13.031,6.529C176.04,112.665,177.043,115.7,177.569,120.29ZM160.1,101.418a19.335,19.335,0,1,1-19.378,19.335A19.456,19.456,0,0,1,160.1,101.418" transform="translate(-140.513 -101.051)" fill="#ff0" stroke="#000" stroke-linecap="round" stroke-linejoin="round" stroke-width="0.573" fill-rule="evenodd"/><path d="M160.294,101.08a19.4,19.4,0,1,1-19.4,19.4,19.434,19.434,0,0,1,19.4-19.4Zm-18.968,19.4a18.968,18.968,0,1,0,18.968-18.971A19.046,19.046,0,0,0,141.326,120.477Z" transform="translate(-140.657 -100.779)" fill="#ff0" stroke="#000" stroke-linecap="round" stroke-linejoin="round" stroke-width="0.573" fill-rule="evenodd"/><path d="M167.063,109.31A17.768,17.768,0,1,1,149.3,127.078,17.839,17.839,0,0,1,167.063,109.31Zm-17.339,17.768a17.339,17.339,0,1,0,17.339-17.341,17.41,17.41,0,0,0-17.339,17.341Z" transform="translate(-147.41 -107.397)" fill="#ff0" stroke="#000" stroke-linecap="round" stroke-linejoin="round" stroke-width="0.573" fill-rule="evenodd"/><path d="M237.157,100.68h-1.662l0,38.974h1.668Z" transform="translate(-216.722 -100.458)" fill="#ff0" stroke="#000" stroke-linecap="round" stroke-linejoin="round" stroke-width="0.573" fill-rule="evenodd"/><path d="M236.358,99.546h.423l0,39.423h-.423l0-39.423Zm-1.65,0h.426v39.423h-.427V99.546Z" transform="translate(-216.091 -99.546)" fill="#ff0" stroke="#000" stroke-linecap="round" stroke-linejoin="round" stroke-width="0.573" fill-rule="evenodd"/><path d="M179.4,182.276v-1.441l-1.173-1.093-6.66-1.763-9.6-.979-11.557.588-8.227,1.959-1.661,1.23v1.441l4.208-1.888,9.99-1.567h9.6l7.052.784,4.9,1.175Z" transform="translate(-140.352 -161.827)" fill="#ff0" stroke="#000" stroke-linecap="round" stroke-linejoin="round" stroke-width="0.573" fill-rule="evenodd"/><path d="M159.309,177.941a67.242,67.242,0,0,1,12.55,1.12c3.637.727,6.2,1.637,7.073,2.658v.506c-1.056-1.271-4.5-2.2-7.153-2.736a66.858,66.858,0,0,0-12.468-1.111,69.381,69.381,0,0,0-12.73,1.137c-2.766.549-6.455,1.639-6.915,2.715V181.7c.253-.744,3-1.857,6.853-2.628A69.681,69.681,0,0,1,159.309,177.941Zm0-1.664a67.287,67.287,0,0,1,12.55,1.12c3.637.728,6.2,1.637,7.073,2.658v.506c-1.056-1.271-4.5-2.2-7.153-2.736a66.8,66.8,0,0,0-12.468-1.111,69.137,69.137,0,0,0-12.708,1.136c-2.669.506-6.509,1.64-6.937,2.715v-.527c.253-.736,3.055-1.889,6.853-2.628a69.714,69.714,0,0,1,12.792-1.133Z" transform="translate(-139.664 -161.246)" fill="#ff0" stroke="#000" stroke-linecap="round" stroke-linejoin="round" stroke-width="0.573" fill-rule="evenodd"/><path d="M168.62,132.956c7.218-.036,13.514,1.009,16.395,2.485l1.051,1.818c-2.5-1.349-9.3-2.752-17.435-2.542-6.632.041-13.717.73-17.273,2.627l1.254-2.1c2.918-1.513,9.8-2.281,16.008-2.289" transform="translate(-149.067 -126.411)" fill="#ff0" stroke="#000" stroke-linecap="round" stroke-linejoin="round" stroke-width="0.573" fill-rule="evenodd"/><path d="M168.241,133.8a65.5,65.5,0,0,1,11.259.792c2.946.548,5.756,1.371,6.158,1.814l.312.55a22.563,22.563,0,0,0-6.531-1.941,63.156,63.156,0,0,0-11.2-.774,64.95,64.95,0,0,0-11.355.77,20.034,20.034,0,0,0-6.111,1.905l.305-.582a20.37,20.37,0,0,1,5.724-1.749,66.688,66.688,0,0,1,11.444-.786h0Zm0-1.662a63.942,63.942,0,0,1,10.862.754,17.61,17.61,0,0,1,5.623,1.839l.456.724c-.774-.861-3.69-1.677-6.263-2.134a69.174,69.174,0,0,0-10.678-.757,64.953,64.953,0,0,0-10.921.8,17.784,17.784,0,0,0-5.427,1.673l.4-.6a19.4,19.4,0,0,1,4.957-1.5,65.425,65.425,0,0,1,10.991-.8Z" transform="translate(-148.592 -125.75)" fill="#ff0" stroke="#000" stroke-linecap="round" stroke-linejoin="round" stroke-width="0.573" fill-rule="evenodd"/><path d="M178.608,231.531a50.629,50.629,0,0,0-9.641-.734c-12.029.141-15.915,2.47-16.389,3.175l-.9-1.466c3.063-2.22,9.613-3.465,17.353-3.337a61.163,61.163,0,0,1,10.405.9l-.83,1.464" transform="translate(-149.325 -203.77)" fill="#ff0" stroke="#000" stroke-linecap="round" stroke-linejoin="round" stroke-width="0.573" fill-rule="evenodd"/><path d="M168.2,229.548a58.309,58.309,0,0,1,9.8.779l-.23.405a51.147,51.147,0,0,0-9.56-.735,46.217,46.217,0,0,0-12.839,1.5c-1.233.343-3.275,1.136-3.484,1.792l-.228-.377c.066-.387,1.3-1.191,3.607-1.839a46.564,46.564,0,0,1,12.932-1.528h0Zm.152-1.684a60.039,60.039,0,0,1,10.527.914l-.239.422a54.9,54.9,0,0,0-10.267-.9,49.277,49.277,0,0,0-13.473,1.574c-1.387.4-3.78,1.277-3.86,1.969l-.228-.4c.052-.628,2.124-1.447,3.988-1.989a49.482,49.482,0,0,1,13.553-1.59Z" transform="translate(-148.628 -202.728)" fill="#ff0" stroke="#000" stroke-linecap="round" stroke-linejoin="round" stroke-width="0.55" fill-rule="evenodd"/><path d="M184.633,164.251l-1.445,2.243-4.153-3.688-10.774-7.248-12.145-6.66-6.306-2.157,1.344-2.492.456-.249,3.918.979,12.929,6.66,7.444,4.7,6.268,4.505,2.547,2.938Z" transform="translate(-147.823 -135.292)" fill="#ff0" stroke="#000" stroke-linecap="round" stroke-linejoin="round" stroke-width="0.573" fill-rule="evenodd"/><path d="M147.647,145.994c1.106-.75,9.234,2.871,17.739,8,8.482,5.143,16.587,10.954,15.856,12.042l-.241.379-.11.087c.024-.017.146-.166-.012-.569-.361-1.189-6.111-5.777-15.65-11.537-9.3-5.545-17.05-8.888-17.825-7.932l.244-.468h0Zm35.346,17.42c.7-1.381-6.84-7.061-16.187-12.59-9.562-5.419-16.453-8.61-17.712-7.658l-.28.509c0,.028.01-.035.069-.08a1.232,1.232,0,0,1,.779-.189c2.168.032,8.358,2.881,17.043,7.861,3.806,2.216,16.077,10.087,16.03,12.3,0,.19.016.229-.056.324l.312-.475h0Z" transform="translate(-145.887 -134.486)" fill="#ff0" stroke="#000" stroke-linecap="round" stroke-linejoin="round" stroke-width="0.573" fill-rule="evenodd"/></g><g transform="translate(35.375 25.805)"><path d="M180.589,147.262a11.718,11.718,0,0,0,11.61,11.62,11.649,11.649,0,0,0,11.648-11.61h0V131.76l-23.26-.028,0,15.53h0Z" transform="translate(-180.586 -131.732)" fill="#fff" stroke="#000" stroke-width="0.67"/><path d="M182.819,149.406v.009a11.046,11.046,0,0,0,3.286,7.837,11.137,11.137,0,0,0,15.756.017,11.046,11.046,0,0,0,3.271-7.844h0V134.375l-22.3,0-.014,15.034m17.83-10.528v9.577l-.008,1.013h0a7.309,7.309,0,0,1-.047.829,6.5,6.5,0,0,1-1.909,3.861,6.661,6.661,0,0,1-4.711,1.947,6.733,6.733,0,0,1-6.633-6.669l0-10.583,13.309.024h0Z" transform="translate(-182.381 -133.854)" fill="red" stroke="#000" stroke-width="0.507"/><g transform="translate(0.904 0.809)"><path d="M190.19,148.924a1.361,1.361,0,0,1,.8-1.341,1.342,1.342,0,0,1,.826,1.351l-1.625-.01" transform="translate(-189.213 -145.287)" fill="#ff0"/><path d="M186.262,147.658l-.134,1.243.811,0a1.105,1.105,0,0,1,.8-1.2,1.2,1.2,0,0,1,.8,1.2h.813l-.147-1.252-2.943.007h0Z" transform="translate(-185.947 -145.341)" fill="#ff0" stroke="#000" stroke-width="0.5"/><path d="M185.328,154.06h3.32a.156.156,0,0,1,0,.307h-3.32a.156.156,0,0,1,0-.307Z" transform="translate(-185.201 -150.495)" fill="#ff0" stroke="#000" stroke-width="0.5"/><path d="M192.01,150.614a.856.856,0,0,1,.445-.832.869.869,0,0,1,.462.832h-.908" transform="translate(-190.676 -147.055)" fill="#ff0" stroke="#000" stroke-width="0.5"/><path d="M185.709,145.05h3.182a.139.139,0,0,1,0,.276h-3.182a.139.139,0,0,1,0-.276Z" transform="translate(-185.512 -143.25)" fill="#ff0" stroke="#000" stroke-width="0.5"/><path d="M186.071,146.47h3.044a.14.14,0,0,1,0,.276h-3.044a.14.14,0,0,1,0-.276Z" transform="translate(-185.807 -144.392)" fill="#ff0" stroke="#000" stroke-width="0.5"/><path d="M191.569,135.866h.24v.171h.175v-.174h.246v.174h.176v-.174h.246v.394a.1.1,0,0,1-.107.1h-.864a.11.11,0,0,1-.112-.1v-.389h0Z" transform="translate(-190.321 -135.863)" fill="#ff0" stroke="#000" stroke-width="0.5"/><path d="M192.953,138.556l.054,1.264-.843,0,.056-1.264.733,0" transform="translate(-190.8 -138.026)" fill="#ff0" stroke="#000" stroke-width="0.5"/><path d="M187.728,141.56l.026.681h-.808l.023-.682h.76Z" transform="translate(-186.604 -140.444)" fill="#ff0" stroke="#000" stroke-width="0.5"/><path d="M187.728,141.56l.026.681h-.808l.023-.682h.76Z" transform="translate(-184.526 -140.444)" fill="#ff0" stroke="#000" stroke-width="0.5"/><path d="M186.3,139.026h.235v.171h.172v-.175h.241v.174h.172v-.175h.241v.394a.1.1,0,0,1-.105.1h-.846a.109.109,0,0,1-.11-.1v-.39h0Z" transform="translate(-186.084 -138.404)" fill="#ff0" stroke="#000" stroke-width="0.5"/><path d="M186.3,139.026h.235v.171h.172v-.175h.241v.174h.172v-.175h.241v.394a.1.1,0,0,1-.105.1h-.846a.109.109,0,0,1-.11-.1v-.39h0Z" transform="translate(-184.005 -138.404)" fill="#ff0" stroke="#000" stroke-width="0.5"/><path d="M193.9,140.23a.085.085,0,1,1,.17,0v.3h-.17v-.3" transform="translate(-192.195 -139.3)"/><path d="M188.57,142.471a.081.081,0,1,1,.162,0v.233h-.162v-.233" transform="translate(-187.91 -141.104)"/><path d="M188.57,142.471a.081.081,0,1,1,.162,0v.233h-.162v-.233" transform="translate(-185.826 -141.104)" stroke="#000" stroke-width="0.5"/><g transform="translate(0 9.074)"><path d="M190.19,148.924a1.361,1.361,0,0,1,.8-1.341,1.342,1.342,0,0,1,.826,1.351l-1.625-.01" transform="translate(-189.213 -145.287)" fill="#ff0"/><path d="M186.262,147.658l-.134,1.243.811,0a1.105,1.105,0,0,1,.8-1.2,1.2,1.2,0,0,1,.8,1.2h.813l-.147-1.252-2.943.007h0Z" transform="translate(-185.947 -145.341)" fill="#ff0" stroke="#000" stroke-width="0.5"/><path d="M185.328,154.06h3.32a.156.156,0,0,1,0,.307h-3.32a.156.156,0,0,1,0-.307Z" transform="translate(-185.201 -150.495)" fill="#ff0" stroke="#000" stroke-width="0.5"/><path d="M192.01,150.614a.856.856,0,0,1,.445-.832.869.869,0,0,1,.462.832h-.908" transform="translate(-190.676 -147.055)" fill="#ff0" stroke="#000" stroke-width="0.5"/><path d="M185.709,145.05h3.182a.139.139,0,0,1,0,.276h-3.182a.139.139,0,0,1,0-.276Z" transform="translate(-185.512 -143.25)" fill="#ff0" stroke="#000" stroke-width="0.5"/><path d="M186.071,146.47h3.044a.14.14,0,0,1,0,.276h-3.044a.14.14,0,0,1,0-.276Z" transform="translate(-185.807 -144.392)" fill="#ff0" stroke="#000" stroke-width="0.5"/><path d="M191.569,135.866h.24v.171h.175v-.174h.246v.174h.176v-.174h.246v.394a.1.1,0,0,1-.107.1h-.864a.11.11,0,0,1-.112-.1v-.389h0Z" transform="translate(-190.321 -135.863)" fill="#ff0" stroke="#000" stroke-width="0.5"/><path d="M192.953,138.556l.054,1.264-.843,0,.056-1.264.733,0" transform="translate(-190.8 -138.026)" fill="#ff0" stroke="#000" stroke-width="0.5"/><path d="M187.728,141.56l.026.681h-.808l.023-.682h.76Z" transform="translate(-186.604 -140.444)" fill="#ff0" stroke="#000" stroke-width="0.5"/><path d="M187.728,141.56l.026.681h-.808l.023-.682h.76Z" transform="translate(-184.526 -140.444)" fill="#ff0" stroke="#000" stroke-width="0.5"/><path d="M186.3,139.026h.235v.171h.172v-.175h.241v.174h.172v-.175h.241v.394a.1.1,0,0,1-.105.1h-.846a.109.109,0,0,1-.11-.1v-.39h0Z" transform="translate(-186.084 -138.404)" fill="#ff0" stroke="#000" stroke-width="0.5"/><path d="M186.3,139.026h.235v.171h.172v-.175h.241v.174h.172v-.175h.241v.394a.1.1,0,0,1-.105.1h-.846a.109.109,0,0,1-.11-.1v-.39h0Z" transform="translate(-184.005 -138.404)" fill="#ff0" stroke="#000" stroke-width="0.5"/><path d="M193.9,140.23a.085.085,0,1,1,.17,0v.3h-.17v-.3" transform="translate(-192.195 -139.3)"/><path d="M188.57,142.471a.081.081,0,1,1,.162,0v.233h-.162v-.233" transform="translate(-187.91 -141.104)"/><path d="M188.57,142.471a.081.081,0,1,1,.162,0v.233h-.162v-.233" transform="translate(-185.826 -141.104)" stroke="#000" stroke-width="0.5"/></g><g transform="translate(1.246 20.286) rotate(-45.202)"><path d="M0,1.341A1.361,1.361,0,0,1,.8,0a1.342,1.342,0,0,1,.826,1.351L0,1.341" transform="translate(0.977 2.296)" fill="#ff0"/><path d="M.134.008,0,1.251l.811,0a1.105,1.105,0,0,1,.8-1.2,1.2,1.2,0,0,1,.8,1.2h.813L3.076,0,.134.007h0Z" transform="translate(0.182 2.309)" fill="#ff0" stroke="#000" stroke-width="0.5"/><path d="M.127,0h3.32a.143.143,0,0,1,.127.154.142.142,0,0,1-.127.153H.127A.142.142,0,0,1,0,.154.143.143,0,0,1,.127,0Z" transform="translate(0 3.565)" fill="#ff0" stroke="#000" stroke-width="0.5"/><path d="M0,.832A.856.856,0,0,1,.445,0,.869.869,0,0,1,.908.832H0" transform="translate(1.334 2.727)" fill="#ff0" stroke="#000" stroke-width="0.5"/><path d="M.122,0H3.3a.131.131,0,0,1,.122.138A.131.131,0,0,1,3.3.276H.122A.131.131,0,0,1,0,.138.131.131,0,0,1,.122,0Z" transform="translate(0.076 1.8)" fill="#ff0" stroke="#000" stroke-width="0.5"/><path d="M.117,0H3.16a.129.129,0,0,1,.117.138A.129.129,0,0,1,3.16.276H.117A.129.129,0,0,1,0,.138.129.129,0,0,1,.117,0Z" transform="translate(0.148 2.078)" fill="#ff0" stroke="#000" stroke-width="0.5"/><path d="M0,0h.24V.174H.416V0H.662V.175H.838V0h.246V.394A.1.1,0,0,1,.976.5H.112A.11.11,0,0,1,0,.393V0H0Z" transform="translate(1.247 0)" fill="#ff0" stroke="#000" stroke-width="0.5"/><path d="M.789,0,.843,1.267,0,1.264.056,0,.789,0" transform="translate(1.364 0.527)" fill="#ff0" stroke="#000" stroke-width="0.5"/><path d="M.782,0,.808.681H0L.023,0h.76Z" transform="translate(0.342 1.116)" fill="#ff0" stroke="#000" stroke-width="0.5"/><path d="M.782,0,.808.681H0L.023,0h.76Z" transform="translate(2.42 1.116)" fill="#ff0" stroke="#000" stroke-width="0.5"/><path d="M0,0H.235V.175H.407V0H.648V.175H.82V0h.241V.395A.1.1,0,0,1,.956.5H.11A.109.109,0,0,1,0,.393V0H0Z" transform="translate(0.215 0.619)" fill="#ff0" stroke="#000" stroke-width="0.5"/><path d="M0,0H.235V.175H.407V0H.648V.175H.82V0h.241V.395A.1.1,0,0,1,.956.5H.11A.109.109,0,0,1,0,.393V0H0Z" transform="translate(2.293 0.619)" fill="#ff0" stroke="#000" stroke-width="0.5"/><path d="M0,.093a.085.085,0,1,1,.17,0v.3H0v-.3" transform="translate(1.704 0.837)"/><path d="M0,.09a.081.081,0,1,1,.162,0V.322H0V.09" transform="translate(0.66 1.277)"/><path d="M0,.09a.081.081,0,1,1,.162,0V.322H0V.09" transform="translate(2.744 1.277)" stroke="#000" stroke-width="0.5"/></g></g><g transform="translate(9.859 0.809)"><path d="M190.19,148.924a1.361,1.361,0,0,1,.8-1.341,1.342,1.342,0,0,1,.826,1.351l-1.625-.01" transform="translate(-189.213 -145.287)" fill="#ff0"/><path d="M186.262,147.658l-.134,1.243.811,0a1.105,1.105,0,0,1,.8-1.2,1.2,1.2,0,0,1,.8,1.2h.813l-.147-1.252-2.943.007h0Z" transform="translate(-185.947 -145.341)" fill="#ff0" stroke="#000" stroke-width="0.5"/><path d="M185.328,154.06h3.32a.156.156,0,0,1,0,.307h-3.32a.156.156,0,0,1,0-.307Z" transform="translate(-185.201 -150.495)" fill="#ff0" stroke="#000" stroke-width="0.5"/><path d="M192.01,150.614a.856.856,0,0,1,.445-.832.869.869,0,0,1,.462.832h-.908" transform="translate(-190.676 -147.055)" fill="#ff0" stroke="#000" stroke-width="0.5"/><path d="M185.709,145.05h3.182a.139.139,0,0,1,0,.276h-3.182a.139.139,0,0,1,0-.276Z" transform="translate(-185.512 -143.25)" fill="#ff0" stroke="#000" stroke-width="0.5"/><path d="M186.071,146.47h3.044a.14.14,0,0,1,0,.276h-3.044a.14.14,0,0,1,0-.276Z" transform="translate(-185.807 -144.392)" fill="#ff0" stroke="#000" stroke-width="0.5"/><path d="M191.569,135.866h.24v.171h.175v-.174h.246v.174h.176v-.174h.246v.394a.1.1,0,0,1-.107.1h-.864a.11.11,0,0,1-.112-.1v-.389h0Z" transform="translate(-190.321 -135.863)" fill="#ff0" stroke="#000" stroke-width="0.5"/><path d="M192.953,138.556l.054,1.264-.843,0,.056-1.264.733,0" transform="translate(-190.8 -138.026)" fill="#ff0" stroke="#000" stroke-width="0.5"/><path d="M187.728,141.56l.026.681h-.808l.023-.682h.76Z" transform="translate(-186.604 -140.444)" fill="#ff0" stroke="#000" stroke-width="0.5"/><path d="M187.728,141.56l.026.681h-.808l.023-.682h.76Z" transform="translate(-184.526 -140.444)" fill="#ff0" stroke="#000" stroke-width="0.5"/><path d="M186.3,139.026h.235v.171h.172v-.175h.241v.174h.172v-.175h.241v.394a.1.1,0,0,1-.105.1h-.846a.109.109,0,0,1-.11-.1v-.39h0Z" transform="translate(-186.084 -138.404)" fill="#ff0" stroke="#000" stroke-width="0.5"/><path d="M186.3,139.026h.235v.171h.172v-.175h.241v.174h.172v-.175h.241v.394a.1.1,0,0,1-.105.1h-.846a.109.109,0,0,1-.11-.1v-.39h0Z" transform="translate(-184.005 -138.404)" fill="#ff0" stroke="#000" stroke-width="0.5"/><path d="M193.9,140.23a.085.085,0,1,1,.17,0v.3h-.17v-.3" transform="translate(-192.195 -139.3)"/><path d="M188.57,142.471a.081.081,0,1,1,.162,0v.233h-.162v-.233" transform="translate(-187.91 -141.104)"/><path d="M188.57,142.471a.081.081,0,1,1,.162,0v.233h-.162v-.233" transform="translate(-185.826 -141.104)" stroke="#000" stroke-width="0.5"/></g><g transform="translate(22.332 23.823) rotate(180)"><g transform="translate(0 19.142)"><path d="M0,.01A1.361,1.361,0,0,0,.8,1.351,1.342,1.342,0,0,0,1.625,0L0,.01" transform="translate(0.977 0.224)" fill="#ff0"/><path d="M.134,1.245,0,0,.811,0a1.105,1.105,0,0,0,.8,1.2A1.2,1.2,0,0,0,2.41,0h.813L3.076,1.252.134,1.245h0Z" transform="translate(0.182 0.31)" fill="#ff0" stroke="#000" stroke-width="0.5"/><path d="M.127.307h3.32A.143.143,0,0,0,3.574.153.142.142,0,0,0,3.447,0H.127A.142.142,0,0,0,0,.153.143.143,0,0,0,.127.307Z" transform="translate(0 0)" fill="#ff0" stroke="#000" stroke-width="0.5"/><path d="M0,0A.856.856,0,0,0,.445.832.869.869,0,0,0,.908,0H0" transform="translate(1.334 0.313)" fill="#ff0" stroke="#000" stroke-width="0.5"/><path d="M.122.276H3.3A.131.131,0,0,0,3.426.138.131.131,0,0,0,3.3,0H.122A.131.131,0,0,0,0,.138.131.131,0,0,0,.122.276Z" transform="translate(0.076 1.796)" fill="#ff0" stroke="#000" stroke-width="0.5"/><path d="M.117.276H3.16A.129.129,0,0,0,3.277.138.129.129,0,0,0,3.16,0H.117A.129.129,0,0,0,0,.138.129.129,0,0,0,.117.276Z" transform="translate(0.148 1.518)" fill="#ff0" stroke="#000" stroke-width="0.5"/><path d="M0,.493h.24V.322H.416V.5H.662V.322H.838V.5h.246V.1A.1.1,0,0,0,.976,0H.112A.11.11,0,0,0,0,.1V.493H0Z" transform="translate(1.247 3.375)" fill="#ff0" stroke="#000" stroke-width="0.5"/><path d="M.789,1.264.843,0,0,0,.056,1.267l.733,0" transform="translate(1.364 2.077)" fill="#ff0" stroke="#000" stroke-width="0.5"/><path d="M.782.682.808,0H0L.023.682h.76Z" transform="translate(0.342 2.074)" fill="#ff0" stroke="#000" stroke-width="0.5"/><path d="M.782.682.808,0H0L.023.682h.76Z" transform="translate(2.42 2.074)" fill="#ff0" stroke="#000" stroke-width="0.5"/><path d="M0,.493H.235V.321H.407V.5H.648V.321H.82V.5h.241V.1A.1.1,0,0,0,.956,0H.11A.109.109,0,0,0,0,.1v.39H0Z" transform="translate(0.215 2.756)" fill="#ff0" stroke="#000" stroke-width="0.5"/><path d="M0,.493H.235V.321H.407V.5H.648V.321H.82V.5h.241V.1A.1.1,0,0,0,.956,0H.11A.109.109,0,0,0,0,.1v.39H0Z" transform="translate(2.293 2.756)" fill="#ff0" stroke="#000" stroke-width="0.5"/><path d="M0,.3A.085.085,0,1,0,.17.3V0H0V.3" transform="translate(1.704 2.64)"/><path d="M0,.233a.081.081,0,1,0,.162,0V0H0V.233" transform="translate(0.66 2.272)"/><path d="M0,.233a.081.081,0,1,0,.162,0V0H0V.233" transform="translate(2.744 2.272)" stroke="#000" stroke-width="0.5"/></g><g transform="translate(0 10.069)"><path d="M0,.01A1.361,1.361,0,0,0,.8,1.351,1.342,1.342,0,0,0,1.625,0L0,.01" transform="translate(0.977 0.224)" fill="#ff0"/><path d="M.134,1.245,0,0,.811,0a1.105,1.105,0,0,0,.8,1.2A1.2,1.2,0,0,0,2.41,0h.813L3.076,1.252.134,1.245h0Z" transform="translate(0.182 0.31)" fill="#ff0" stroke="#000" stroke-width="0.5"/><path d="M.127.307h3.32A.143.143,0,0,0,3.574.153.142.142,0,0,0,3.447,0H.127A.142.142,0,0,0,0,.153.143.143,0,0,0,.127.307Z" transform="translate(0 0)" fill="#ff0" stroke="#000" stroke-width="0.5"/><path d="M0,0A.856.856,0,0,0,.445.832.869.869,0,0,0,.908,0H0" transform="translate(1.334 0.313)" fill="#ff0" stroke="#000" stroke-width="0.5"/><path d="M.122.276H3.3A.131.131,0,0,0,3.426.138.131.131,0,0,0,3.3,0H.122A.131.131,0,0,0,0,.138.131.131,0,0,0,.122.276Z" transform="translate(0.076 1.796)" fill="#ff0" stroke="#000" stroke-width="0.5"/><path d="M.117.276H3.16A.129.129,0,0,0,3.277.138.129.129,0,0,0,3.16,0H.117A.129.129,0,0,0,0,.138.129.129,0,0,0,.117.276Z" transform="translate(0.148 1.518)" fill="#ff0" stroke="#000" stroke-width="0.5"/><path d="M0,.493h.24V.322H.416V.5H.662V.322H.838V.5h.246V.1A.1.1,0,0,0,.976,0H.112A.11.11,0,0,0,0,.1V.493H0Z" transform="translate(1.247 3.375)" fill="#ff0" stroke="#000" stroke-width="0.5"/><path d="M.789,1.264.843,0,0,0,.056,1.267l.733,0" transform="translate(1.364 2.077)" fill="#ff0" stroke="#000" stroke-width="0.5"/><path d="M.782.682.808,0H0L.023.682h.76Z" transform="translate(0.342 2.074)" fill="#ff0" stroke="#000" stroke-width="0.5"/><path d="M.782.682.808,0H0L.023.682h.76Z" transform="translate(2.42 2.074)" fill="#ff0" stroke="#000" stroke-width="0.5"/><path d="M0,.493H.235V.321H.407V.5H.648V.321H.82V.5h.241V.1A.1.1,0,0,0,.956,0H.11A.109.109,0,0,0,0,.1v.39H0Z" transform="translate(0.215 2.756)" fill="#ff0" stroke="#000" stroke-width="0.5"/><path d="M0,.493H.235V.321H.407V.5H.648V.321H.82V.5h.241V.1A.1.1,0,0,0,.956,0H.11A.109.109,0,0,0,0,.1v.39H0Z" transform="translate(2.293 2.756)" fill="#ff0" stroke="#000" stroke-width="0.5"/><path d="M0,.3A.085.085,0,1,0,.17.3V0H0V.3" transform="translate(1.704 2.64)"/><path d="M0,.233a.081.081,0,1,0,.162,0V0H0V.233" transform="translate(0.66 2.272)"/><path d="M0,.233a.081.081,0,1,0,.162,0V0H0V.233" transform="translate(2.744 2.272)" stroke="#000" stroke-width="0.5"/></g><g transform="translate(3.993 0) rotate(45.202)"><path d="M0,.01A1.361,1.361,0,0,0,.8,1.351,1.342,1.342,0,0,0,1.625,0L0,.01" transform="translate(0.977 0.224)" fill="#ff0"/><path d="M.134,1.245,0,0,.811,0a1.105,1.105,0,0,0,.8,1.2A1.2,1.2,0,0,0,2.41,0h.813L3.076,1.252.134,1.245h0Z" transform="translate(0.182 0.31)" fill="#ff0" stroke="#000" stroke-width="0.5"/><path d="M.127.307h3.32A.143.143,0,0,0,3.574.153.142.142,0,0,0,3.447,0H.127A.142.142,0,0,0,0,.153.143.143,0,0,0,.127.307Z" transform="translate(0 0)" fill="#ff0" stroke="#000" stroke-width="0.5"/><path d="M0,0A.856.856,0,0,0,.445.832.869.869,0,0,0,.908,0H0" transform="translate(1.334 0.313)" fill="#ff0" stroke="#000" stroke-width="0.5"/><path d="M.122.276H3.3A.131.131,0,0,0,3.426.138.131.131,0,0,0,3.3,0H.122A.131.131,0,0,0,0,.138.131.131,0,0,0,.122.276Z" transform="translate(0.076 1.796)" fill="#ff0" stroke="#000" stroke-width="0.5"/><path d="M.117.276H3.16A.129.129,0,0,0,3.277.138.129.129,0,0,0,3.16,0H.117A.129.129,0,0,0,0,.138.129.129,0,0,0,.117.276Z" transform="translate(0.148 1.518)" fill="#ff0" stroke="#000" stroke-width="0.5"/><path d="M0,.493h.24V.322H.416V.5H.662V.322H.838V.5h.246V.1A.1.1,0,0,0,.976,0H.112A.11.11,0,0,0,0,.1V.493H0Z" transform="translate(1.247 3.375)" fill="#ff0" stroke="#000" stroke-width="0.5"/><path d="M.789,1.264.843,0,0,0,.056,1.267l.733,0" transform="translate(1.364 2.077)" fill="#ff0" stroke="#000" stroke-width="0.5"/><path d="M.782.682.808,0H0L.023.682h.76Z" transform="translate(0.342 2.074)" fill="#ff0" stroke="#000" stroke-width="0.5"/><path d="M.782.682.808,0H0L.023.682h.76Z" transform="translate(2.42 2.074)" fill="#ff0" stroke="#000" stroke-width="0.5"/><path d="M0,.493H.235V.321H.407V.5H.648V.321H.82V.5h.241V.1A.1.1,0,0,0,.956,0H.11A.109.109,0,0,0,0,.1v.39H0Z" transform="translate(0.215 2.756)" fill="#ff0" stroke="#000" stroke-width="0.5"/><path d="M0,.493H.235V.321H.407V.5H.648V.321H.82V.5h.241V.1A.1.1,0,0,0,.956,0H.11A.109.109,0,0,0,0,.1v.39H0Z" transform="translate(2.293 2.756)" fill="#ff0" stroke="#000" stroke-width="0.5"/><path d="M0,.3A.085.085,0,1,0,.17.3V0H0V.3" transform="translate(1.704 2.64)"/><path d="M0,.233a.081.081,0,1,0,.162,0V0H0V.233" transform="translate(0.66 2.272)"/><path d="M0,.233a.081.081,0,1,0,.162,0V0H0V.233" transform="translate(2.744 2.272)" stroke="#000" stroke-width="0.5"/></g></g><g transform="translate(10.196 11.735)"><path d="M232.636,193.748h0a1.634,1.634,0,0,0,.433,1.114,1.393,1.393,0,0,0,2.077,0,1.634,1.634,0,0,0,.431-1.115v-2.109l-2.937,0-.005,2.109" transform="translate(-232.636 -191.639)" fill="#039"/><ellipse cx="0.291" cy="0.291" rx="0.291" ry="0.291" transform="translate(0.382 0.511)" fill="#fff"/><ellipse cx="0.291" cy="0.291" rx="0.291" ry="0.291" transform="translate(2.012 0.513)" fill="#fff"/><ellipse cx="0.291" cy="0.291" rx="0.291" ry="0.291" transform="translate(1.196 1.295)" fill="#fff"/><ellipse cx="0.291" cy="0.291" rx="0.291" ry="0.291" transform="translate(0.382 2.114)" fill="#fff"/><ellipse cx="0.291" cy="0.291" rx="0.291" ry="0.291" transform="translate(2.01 2.112)" fill="#fff"/></g><g transform="translate(10.196 6.639)"><path d="M232.636,193.748h0a1.634,1.634,0,0,0,.433,1.114,1.393,1.393,0,0,0,2.077,0,1.634,1.634,0,0,0,.431-1.115v-2.109l-2.937,0-.005,2.109" transform="translate(-232.636 -191.639)" fill="#039"/><ellipse cx="0.291" cy="0.291" rx="0.291" ry="0.291" transform="translate(0.382 0.511)" fill="#fff"/><ellipse cx="0.291" cy="0.291" rx="0.291" ry="0.291" transform="translate(2.012 0.513)" fill="#fff"/><ellipse cx="0.291" cy="0.291" rx="0.291" ry="0.291" transform="translate(1.196 1.295)" fill="#fff"/><ellipse cx="0.291" cy="0.291" rx="0.291" ry="0.291" transform="translate(0.382 2.114)" fill="#fff"/><ellipse cx="0.291" cy="0.291" rx="0.291" ry="0.291" transform="translate(2.01 2.112)" fill="#fff"/></g><g transform="translate(6.122 11.735)"><path d="M232.636,193.748h0a1.634,1.634,0,0,0,.433,1.114,1.393,1.393,0,0,0,2.077,0,1.634,1.634,0,0,0,.431-1.115v-2.109l-2.937,0-.005,2.109" transform="translate(-232.636 -191.639)" fill="#039"/><ellipse cx="0.291" cy="0.291" rx="0.291" ry="0.291" transform="translate(0.382 0.511)" fill="#fff"/><ellipse cx="0.291" cy="0.291" rx="0.291" ry="0.291" transform="translate(2.012 0.513)" fill="#fff"/><ellipse cx="0.291" cy="0.291" rx="0.291" ry="0.291" transform="translate(1.196 1.295)" fill="#fff"/><ellipse cx="0.291" cy="0.291" rx="0.291" ry="0.291" transform="translate(0.382 2.114)" fill="#fff"/><ellipse cx="0.291" cy="0.291" rx="0.291" ry="0.291" transform="translate(2.01 2.112)" fill="#fff"/></g><g transform="translate(14.26 11.735)"><path d="M232.636,193.748h0a1.634,1.634,0,0,0,.433,1.114,1.393,1.393,0,0,0,2.077,0,1.634,1.634,0,0,0,.431-1.115v-2.109l-2.937,0-.005,2.109" transform="translate(-232.636 -191.639)" fill="#039"/><ellipse cx="0.291" cy="0.291" rx="0.291" ry="0.291" transform="translate(0.382 0.511)" fill="#fff"/><ellipse cx="0.291" cy="0.291" rx="0.291" ry="0.291" transform="translate(2.012 0.513)" fill="#fff"/><ellipse cx="0.291" cy="0.291" rx="0.291" ry="0.291" transform="translate(1.196 1.295)" fill="#fff"/><ellipse cx="0.291" cy="0.291" rx="0.291" ry="0.291" transform="translate(0.382 2.114)" fill="#fff"/><ellipse cx="0.291" cy="0.291" rx="0.291" ry="0.291" transform="translate(2.01 2.112)" fill="#fff"/></g><g transform="translate(10.196 16.786)"><path d="M232.636,193.748h0a1.634,1.634,0,0,0,.433,1.114,1.393,1.393,0,0,0,2.077,0,1.634,1.634,0,0,0,.431-1.115v-2.109l-2.937,0-.005,2.109" transform="translate(-232.636 -191.639)" fill="#039"/><ellipse cx="0.291" cy="0.291" rx="0.291" ry="0.291" transform="translate(0.382 0.511)" fill="#fff"/><ellipse cx="0.291" cy="0.291" rx="0.291" ry="0.291" transform="translate(2.012 0.513)" fill="#fff"/><ellipse cx="0.291" cy="0.291" rx="0.291" ry="0.291" transform="translate(1.196 1.295)" fill="#fff"/><ellipse cx="0.291" cy="0.291" rx="0.291" ry="0.291" transform="translate(0.382 2.114)" fill="#fff"/><ellipse cx="0.291" cy="0.291" rx="0.291" ry="0.291" transform="translate(2.01 2.112)" fill="#fff"/></g></g></g></svg>